HIERARCHY
ROOT Hips
{
	OFFSET 0.000000 100.481300 0.000000
	CHANNELS 6 Xposition Yposition Zposition Xrotation Yrotation Zrotation
	JOINT Spine
	{
		OFFSET -0.279200 12.230698 -2.892100
		CHANNELS 3 Xrotation Yrotation Zrotation
		JOINT Spine1
		{
			OFFSET -0.325700 14.269203 -3.374200
			CHANNELS 3 Xrotation Yrotation Zrotation
			JOINT Spine2
			{
				OFFSET -0.372300 16.307602 -0.352600
				CHANNELS 3 Xrotation Yrotation Zrotation
				JOINT Neck
				{
					OFFSET -0.418800 17.814194 8.416900
					CHANNELS 3 Xrotation Yrotation Zrotation
					JOINT Head
					{
						OFFSET 0.000000 7.031097 3.806800
						CHANNELS 3 Xrotation Yrotation Zrotation
						JOINT HeadTop_End
						{
							OFFSET 0.000000 24.646606 12.978600
							CHANNELS 3 Xrotation Yrotation Zrotation
							End Site
							{
								OFFSET 0.000000 27.854965 0.000000
							}
						}
					}
				}
				JOINT LeftShoulder
				{
					OFFSET 16.952999 14.495407 -7.737500
					CHANNELS 3 Xrotation Yrotation Zrotation
					JOINT LeftArm
					{
						OFFSET 9.308998 -2.777710 0.208600
						CHANNELS 3 Xrotation Yrotation Zrotation
						JOINT LeftForeArm
						{
							OFFSET 29.972298 0.000000 0.000000
							CHANNELS 3 Xrotation Yrotation Zrotation
							JOINT LeftHand
							{
								OFFSET 26.026505 0.000000 0.000000
								CHANNELS 3 Xrotation Yrotation Zrotation
								JOINT LeftHandThumb1
								{
									OFFSET 12.240501 -7.147949 9.207150
									CHANNELS 3 Xrotation Yrotation Zrotation
									JOINT LeftHandThumb2
									{
										OFFSET 4.138618 -2.389435 2.389433
										CHANNELS 3 Xrotation Yrotation Zrotation
										JOINT LeftHandThumb3
										{
											OFFSET 2.726913 -1.574387 1.574386
											CHANNELS 3 Xrotation Yrotation Zrotation
											JOINT LeftHandThumb4
											{
												OFFSET 3.941010 -2.275345 2.275342
												CHANNELS 3 Xrotation Yrotation Zrotation
												End Site
												{
													OFFSET -0.005798 5.087799 0.009903
												}
											}
										}
									}
								}
								JOINT LeftHandIndex1
								{
									OFFSET 24.424698 -1.985611 5.953459
									CHANNELS 3 Xrotation Yrotation Zrotation
									JOINT LeftHandIndex2
									{
										OFFSET 6.426697 0.000000 0.000000
										CHANNELS 3 Xrotation Yrotation Zrotation
										JOINT LeftHandIndex3
										{
											OFFSET 5.337898 0.000000 0.000000
											CHANNELS 3 Xrotation Yrotation Zrotation
											JOINT LeftHandIndex4
											{
												OFFSET 4.409401 0.000000 0.000000
												CHANNELS 3 Xrotation Yrotation Zrotation
												End Site
												{
													OFFSET 0.000000 4.409363 0.014373
												}
											}
										}
									}
								}
								JOINT LeftHandMiddle1
								{
									OFFSET 23.810104 0.000000 0.000000
									CHANNELS 3 Xrotation Yrotation Zrotation
									JOINT LeftHandMiddle2
									{
										OFFSET 7.176498 0.000000 0.000000
										CHANNELS 3 Xrotation Yrotation Zrotation
										JOINT LeftHandMiddle3
										{
											OFFSET 6.774902 0.000000 0.000000
											CHANNELS 3 Xrotation Yrotation Zrotation
											JOINT LeftHandMiddle4
											{
												OFFSET 5.403328 0.000000 0.000000
												CHANNELS 3 Xrotation Yrotation Zrotation
												End Site
												{
													OFFSET -0.027702 5.403244 0.017414
												}
											}
										}
									}
								}
								JOINT LeftHandRing1
								{
									OFFSET 22.908401 -0.839279 -6.020567
									CHANNELS 3 Xrotation Yrotation Zrotation
									JOINT LeftHandRing2
									{
										OFFSET 6.337502 0.000000 0.000000
										CHANNELS 3 Xrotation Yrotation Zrotation
										JOINT LeftHandRing3
										{
											OFFSET 5.779297 0.000000 0.000000
											CHANNELS 3 Xrotation Yrotation Zrotation
											JOINT LeftHandRing4
											{
												OFFSET 4.965698 0.000000 0.000000
												CHANNELS 3 Xrotation Yrotation Zrotation
												End Site
												{
													OFFSET 0.000000 4.965668 0.016186
												}
											}
										}
									}
								}
								JOINT LeftHandPinky1
								{
									OFFSET 20.037003 -1.530319 -10.950146
									CHANNELS 3 Xrotation Yrotation Zrotation
									JOINT LeftHandPinky2
									{
										OFFSET 5.254700 0.000000 0.000000
										CHANNELS 3 Xrotation Yrotation Zrotation
										JOINT LeftHandPinky3
										{
											OFFSET 4.810204 0.000000 0.000000
											CHANNELS 3 Xrotation Yrotation Zrotation
											JOINT LeftHandPinky4
											{
												OFFSET 3.647202 0.000000 0.000000
												CHANNELS 3 Xrotation Yrotation Zrotation
												End Site
												{
													OFFSET 0.000000 3.647186 0.011889
												}
											}
										}
									}
								}
							}
						}
					}
				}
				JOINT RightShoulder
				{
					OFFSET -15.141001 14.495407 -7.737500
					CHANNELS 3 Xrotation Yrotation Zrotation
					JOINT RightArm
					{
						OFFSET -9.308998 -2.777710 0.208500
						CHANNELS 3 Xrotation Yrotation Zrotation
						JOINT RightForeArm
						{
							OFFSET -29.972300 0.000000 0.000000
							CHANNELS 3 Xrotation Yrotation Zrotation
							JOINT RightHand
							{
								OFFSET -26.026505 0.000000 0.000000
								CHANNELS 3 Xrotation Yrotation Zrotation
								JOINT RightHandThumb1
								{
									OFFSET -12.240601 -7.148026 9.207092
									CHANNELS 3 Xrotation Yrotation Zrotation
									JOINT RightHandThumb2
									{
										OFFSET -4.138618 -2.389435 2.389433
										CHANNELS 3 Xrotation Yrotation Zrotation
										JOINT RightHandThumb3
										{
											OFFSET -2.726974 -1.574417 1.574421
											CHANNELS 3 Xrotation Yrotation Zrotation
											JOINT RightHandThumb4
											{
												OFFSET -3.941010 -2.275345 2.275343
												CHANNELS 3 Xrotation Yrotation Zrotation
												End Site
												{
													OFFSET 0.005814 5.087799 0.009927
												}
											}
										}
									}
								}
								JOINT RightHandIndex1
								{
									OFFSET -24.424698 -1.985657 5.953444
									CHANNELS 3 Xrotation Yrotation Zrotation
									JOINT RightHandIndex2
									{
										OFFSET -6.426697 0.000000 0.000000
										CHANNELS 3 Xrotation Yrotation Zrotation
										JOINT RightHandIndex3
										{
											OFFSET -5.337898 0.000000 0.000000
											CHANNELS 3 Xrotation Yrotation Zrotation
											JOINT RightHandIndex4
											{
												OFFSET -4.409401 0.000000 0.000000
												CHANNELS 3 Xrotation Yrotation Zrotation
												End Site
												{
													OFFSET 0.000000 4.409363 0.014408
												}
											}
										}
									}
								}
								JOINT RightHandMiddle1
								{
									OFFSET -23.810097 0.000000 0.000000
									CHANNELS 3 Xrotation Yrotation Zrotation
									JOINT RightHandMiddle2
									{
										OFFSET -7.176498 0.000000 0.000000
										CHANNELS 3 Xrotation Yrotation Zrotation
										JOINT RightHandMiddle3
										{
											OFFSET -6.774902 0.000000 0.000000
											CHANNELS 3 Xrotation Yrotation Zrotation
											JOINT RightHandMiddle4
											{
												OFFSET -5.403328 0.000000 0.000000
												CHANNELS 3 Xrotation Yrotation Zrotation
												End Site
												{
													OFFSET 0.027702 5.403244 0.017457
												}
											}
										}
									}
								}
								JOINT RightHandRing1
								{
									OFFSET -22.908302 -0.839325 -6.020576
									CHANNELS 3 Xrotation Yrotation Zrotation
									JOINT RightHandRing2
									{
										OFFSET -6.337502 0.000000 0.000000
										CHANNELS 3 Xrotation Yrotation Zrotation
										JOINT RightHandRing3
										{
											OFFSET -5.779297 0.000000 0.000000
											CHANNELS 3 Xrotation Yrotation Zrotation
											JOINT RightHandRing4
											{
												OFFSET -4.965698 0.000000 0.000000
												CHANNELS 3 Xrotation Yrotation Zrotation
												End Site
												{
													OFFSET 0.000000 4.965668 0.016226
												}
											}
										}
									}
								}
								JOINT RightHandPinky1
								{
									OFFSET -20.037003 -1.530334 -10.950259
									CHANNELS 3 Xrotation Yrotation Zrotation
									JOINT RightHandPinky2
									{
										OFFSET -5.254700 0.000000 0.000000
										CHANNELS 3 Xrotation Yrotation Zrotation
										JOINT RightHandPinky3
										{
											OFFSET -4.810204 0.000000 0.000000
											CHANNELS 3 Xrotation Yrotation Zrotation
											JOINT RightHandPinky4
											{
												OFFSET -3.647202 0.000000 0.000000
												CHANNELS 3 Xrotation Yrotation Zrotation
												End Site
												{
													OFFSET 0.000000 3.647186 0.011917
												}
											}
										}
									}
								}
							}
						}
					}
				}
			}
		}
	}
	JOINT LeftUpLeg
	{
		OFFSET 15.427100 -6.655098 0.678600
		CHANNELS 3 Xrotation Yrotation Zrotation
		JOINT LeftLeg
		{
			OFFSET 4.081073 -39.591068 13.024000
			CHANNELS 3 Xrotation Yrotation Zrotation
			JOINT LeftFoot
			{
				OFFSET -4.081074 -37.707932 -15.979700
				CHANNELS 3 Xrotation Yrotation Zrotation
				JOINT LeftToeBase
				{
					OFFSET 5.346399 -15.068900 20.645000
					CHANNELS 3 Xrotation Yrotation Zrotation
					JOINT LeftToe_End
					{
						OFFSET 2.754700 0.931300 11.300900
						CHANNELS 3 Xrotation Yrotation Zrotation
						End Site
						{
							OFFSET 0.000000 11.669021 0.000000
						}
					}
				}
			}
		}
	}
	JOINT RightUpLeg
	{
		OFFSET -15.569500 -6.655098 0.678600
		CHANNELS 3 Xrotation Yrotation Zrotation
		JOINT RightLeg
		{
			OFFSET -4.081825 -39.591045 13.023800
			CHANNELS 3 Xrotation Yrotation Zrotation
			JOINT RightFoot
			{
				OFFSET 4.081824 -37.707954 -15.979600
				CHANNELS 3 Xrotation Yrotation Zrotation
				JOINT RightToeBase
				{
					OFFSET -5.346400 -15.068900 20.645000
					CHANNELS 3 Xrotation Yrotation Zrotation
					JOINT RightToe_End
					{
						OFFSET -2.754700 0.931300 11.300900
						CHANNELS 3 Xrotation Yrotation Zrotation
						End Site
						{
							OFFSET 0.000000 11.669021 0.000000
						}
					}
				}
			}
		}
	}
}
MOTION
Frames: 6
Frame Time: 0.033333
-0.158526 94.057816 -0.784044 -1.520561 -0.077597 -1.419248 0.968782 -0.152074 0.367854 1.020918 -2.478266 0.146190 1.015812 -2.474655 0.189377 -2.750128 0.880340 -1.427499 5.577626 -1.524227 3.694424 -0.000000 0.000000 -0.000000 -0.356739 7.381307 -0.457851 2.460132 -24.543395 -70.534674 0.000004 -29.295030 0.000020 8.406631 13.751701 -13.395888 -12.748659 12.490588 7.069863 9.132123 13.353310 2.458392 -0.231284 2.515387 2.854806 -0.000002 0.000001 -0.000002 -0.057740 1.133583 -21.119264 1.282142 4.006571 -35.478229 0.313880 2.059089 -17.332933 0.000001 0.000002 0.000001 0.285460 2.229025 -27.281642 0.592919 2.800016 -23.908164 0.230171 1.768805 -14.826527 -0.000003 -0.000000 -0.000002 -0.193584 1.775252 -33.458689 0.311177 2.050408 -17.257354 0.127127 1.319661 -11.004570 -0.000002 -0.000000 -0.000001 3.815476 6.548344 -46.941824 0.466766 -1.571797 -21.567600 0.061712 0.921707 -7.661015 -0.000001 -0.000003 0.000003 0.994800 2.418249 -3.714710 -2.712709 25.494581 74.914956 0.000005 27.096025 0.000001 -2.018528 -14.792052 0.825488 5.885691 -23.150692 -6.128304 5.589413 1.183910 -0.178721 -2.062909 1.066969 -2.931966 0.000003 0.000001 0.000002 0.881700 -5.090750 11.111604 1.521968 -4.346264 38.583039 0.068435 -0.975138 8.028682 -0.000001 0.000001 -0.000001 2.214357 -7.095806 20.571126 0.886872 -3.403099 29.205865 -1.554832 -0.800643 5.339593 -0.000000 0.000000 -0.000002 1.779789 -4.968170 29.573145 0.508506 -2.614704 22.007453 -1.741340 -1.289547 8.376560 -0.000001 -0.000001 -0.000001 3.718051 -7.135105 37.981664 0.314126 -2.070214 17.254465 0.063959 -0.942878 7.761309 0.000002 -0.000001 0.000001 -7.526827 3.581848 5.072201 21.763839 8.628088 0.696117 -11.898167 3.503160 -5.598363 -0.464209 0.000003 0.000000 -0.000000 0.000002 0.000000 -9.122502 -13.167612 -7.566489 18.707390 -3.500629 -1.103238 -6.854243 -5.090913 8.001865 -0.000017 -0.000003 0.000005 0.000000 0.000000 -0.000000 
0.016573 93.974586 -0.821197 -1.543393 -0.091153 -1.539536 1.006216 -0.138531 0.380309 1.090725 -2.458725 0.133613 1.086218 -2.455135 0.178235 -2.719649 0.858690 -1.378170 5.534416 -1.539280 3.739789 0.000000 0.000000 0.000000 -0.347701 7.241594 -0.396599 2.381609 -24.672062 -70.607982 -0.000001 -29.273077 -0.000023 8.471463 13.735410 -13.432953 -12.751906 12.495653 7.080167 9.119511 13.347657 2.458498 -0.231087 2.514305 2.853148 -0.000001 -0.000002 -0.000001 -0.052968 1.153513 -21.226730 1.268769 3.987782 -35.286403 0.310515 2.048268 -17.238720 0.000000 0.000002 0.000002 0.279185 2.221590 -27.398952 0.586607 2.785706 -23.778303 0.228127 1.761120 -14.760626 0.000000 -0.000000 0.000003 -0.224716 1.734451 -33.544442 0.309223 2.044095 -17.202685 0.126440 1.316097 -10.974520 -0.000001 -0.000004 -0.000000 3.763210 6.493102 -47.078715 0.466769 -1.571799 -21.567617 0.061741 0.921844 -7.662146 -0.000002 0.000001 0.000001 1.041308 2.663385 -3.569552 -2.709000 25.573029 74.800653 -0.000005 27.155936 -0.000009 -2.051800 -14.748105 0.755539 5.833069 -23.161967 -6.264866 5.531895 1.218618 -0.144814 -2.061315 1.067024 -2.927812 -0.000003 0.000001 0.000003 0.875663 -5.044366 11.163475 1.520621 -4.344597 38.565410 0.067557 -0.968918 7.977091 -0.000003 -0.000000 -0.000001 2.210814 -7.044544 20.750011 0.882345 -3.394994 29.129534 -1.573869 -0.789371 5.252938 0.000001 0.000001 0.000004 1.742541 -4.896450 29.688336 0.504963 -2.605909 21.929325 -1.752270 -1.282468 8.320744 -0.000001 0.000001 0.000001 3.671615 -7.057192 38.177547 0.313235 -2.067311 17.229492 0.062242 -0.930193 7.656215 -0.000002 -0.000000 -0.000001 -7.679224 3.616005 5.100973 22.079522 8.581058 0.648736 -12.074879 3.510296 -5.454904 -0.445756 0.000003 0.000001 -0.000000 0.000000 0.000000 -9.200915 -13.262517 -7.589809 18.811584 -3.514700 -1.152958 -6.828204 -4.975011 8.146750 -0.000034 0.000000 -0.000000 0.000000 0.000000 0.000000 
0.185928 93.910927 -0.835642 -1.569871 -0.093737 -1.650383 1.038371 -0.124807 0.390270 1.151904 -2.434551 0.118298 1.148082 -2.431010 0.164260 -2.666048 0.840117 -1.335075 5.536660 -1.552063 3.784235 0.000000 0.000000 -0.000000 -0.343846 7.179721 -0.357167 2.339534 -24.712572 -70.632161 0.000009 -29.243636 0.000018 8.552393 13.725275 -13.451084 -12.754477 12.501659 7.089688 9.105308 13.341420 2.459136 -0.232527 2.509820 2.851235 0.000001 0.000001 0.000000 -0.047022 1.176187 -21.332354 1.256573 3.970518 -35.110430 0.307396 2.038205 -17.151459 0.000002 -0.000001 -0.000001 0.274493 2.217812 -27.528714 0.580824 2.772590 -23.659164 0.226264 1.754011 -14.699547 -0.000000 -0.000005 -0.000001 -0.254495 1.697518 -33.649484 0.307459 2.038401 -17.153040 0.125791 1.312767 -10.946406 0.000001 0.000000 -0.000000 3.716488 6.441332 -47.260411 0.466770 -1.571775 -21.567615 0.061747 0.921925 -7.662932 0.000001 -0.000001 -0.000000 1.068260 2.809598 -3.498245 -2.721691 25.643793 74.798016 0.000000 27.188212 -0.000007 -2.217520 -14.697821 0.697487 5.804923 -23.175462 -6.354350 5.487528 1.245439 -0.118181 -2.061022 1.068352 -2.925400 -0.000004 -0.000001 -0.000000 0.883674 -5.046178 11.279049 1.516400 -4.339309 38.509798 0.066037 -0.958002 7.886673 0.000000 -0.000000 -0.000006 2.201522 -7.018112 20.761108 0.884066 -3.398088 29.158696 -1.566063 -0.776737 5.174109 0.000000 -0.000000 0.000002 1.712942 -4.847010 29.652249 0.508951 -2.615813 22.017204 -1.737149 -1.275107 8.288115 0.000001 0.000000 -0.000001 3.626910 -7.000865 38.179938 0.316421 -2.077594 17.317887 0.061473 -0.924422 7.608445 0.000003 -0.000001 0.000001 -7.780251 3.649869 5.121785 22.328582 8.517043 0.592991 -12.232649 3.524340 -5.301312 -0.439530 0.000014 0.000001 -0.000000 -0.000002 -0.000000 -9.227579 -13.349558 -7.612966 18.866430 -3.547526 -1.202418 -6.798457 -4.862617 8.297911 -0.000016 -0.000007 0.000002 -0.000000 -0.000000 0.000000 
0.336965 93.901703 -0.787934 -1.614420 -0.067875 -1.729996 1.057766 -0.111984 0.394514 1.192554 -2.399855 0.094675 1.189678 -2.396440 0.141880 -2.549395 0.833599 -1.319702 5.645058 -1.558354 3.826217 0.000000 -0.000001 0.000000 -0.341495 7.162176 -0.352725 2.331796 -24.700353 -70.601261 0.000009 -29.208389 0.000030 8.635841 13.729088 -13.457020 -12.755514 12.508265 7.096750 9.087383 13.333940 2.461406 -0.238218 2.496158 2.848109 -0.000002 -0.000002 -0.000002 -0.043182 1.189397 -21.381033 1.251013 3.962629 -35.030268 0.305981 2.033629 -17.111741 0.000002 0.000003 0.000001 0.270535 2.214901 -27.641265 0.578206 2.766602 -23.604832 0.225412 1.750755 -14.671721 0.000002 -0.000003 -0.000003 -0.278026 1.672043 -33.774626 0.306694 2.035927 -17.131650 0.125476 1.311158 -10.932843 0.000002 0.000001 -0.000002 3.689818 6.405129 -47.514914 0.466772 -1.571790 -21.567615 0.061742 0.921939 -7.662804 -0.000000 0.000001 -0.000000 1.084353 2.895695 -3.468221 -2.733848 25.721835 74.861155 -0.000008 27.212500 -0.000009 -2.457032 -14.646801 0.649926 5.795588 -23.155043 -6.287607 5.559524 1.206037 -0.141761 -2.050515 1.042560 -2.931542 -0.000000 0.000000 0.000001 0.930572 -5.179328 11.561831 1.504102 -4.323852 38.346881 0.062882 -0.934927 7.695469 0.000001 -0.000001 -0.000002 2.163482 -7.049572 20.208375 0.905817 -3.436697 29.523472 -1.473790 -0.762424 5.135463 0.000001 0.000000 0.000001 1.696834 -4.848636 29.128879 0.536932 -2.683870 22.622164 -1.638841 -1.267180 8.331845 -0.000000 0.000000 -0.000002 3.572886 -6.992724 37.553920 0.332791 -2.129330 17.763845 0.063618 -0.940402 7.740787 0.000002 -0.000001 -0.000001 -7.726424 3.653767 5.118913 22.393916 8.427146 0.507943 -12.337373 3.563926 -5.128162 -0.454432 -0.000002 -0.000000 0.000000 -0.000000 -0.000000 -9.105328 -13.403606 -7.636747 18.789978 -3.625803 -1.249568 -6.761195 -4.773238 8.463275 -0.000039 0.000002 -0.000005 -0.000000 -0.000000 0.000000 
0.474385 93.874657 -0.740177 -1.669117 -0.035219 -1.795255 1.079688 -0.099503 0.391256 1.237929 -2.367712 0.065950 1.236205 -2.364421 0.114640 -2.416230 0.829497 -1.312076 5.725829 -1.566737 3.873259 -0.000000 -0.000000 0.000000 -0.338458 7.145462 -0.370135 2.353304 -24.630014 -70.536422 -0.000003 -29.165478 -0.000018 8.713067 13.753423 -13.444917 -12.756667 12.511412 7.101947 9.070782 13.327497 2.464345 -0.244573 2.480801 2.844100 0.000002 0.000001 0.000000 -0.056710 1.150343 -21.320446 1.253625 3.966345 -35.068059 0.306792 2.036238 -17.134289 -0.000001 -0.000002 0.000000 0.253094 2.181659 -27.645513 0.579433 2.769397 -23.630320 0.225892 1.752608 -14.687622 -0.000000 0.000003 0.000002 -0.299929 1.643609 -33.830702 0.307103 2.037229 -17.143116 0.125634 1.311967 -10.939558 -0.000001 0.000001 0.000001 3.671432 6.381836 -47.662624 0.466773 -1.571788 -21.567620 0.061739 0.921879 -7.662552 -0.000000 -0.000002 0.000002 1.097095 2.953840 -3.452103 -2.725381 25.803179 74.953185 -0.000011 27.245462 0.000011 -2.726569 -14.597928 0.609716 5.708298 -23.071290 -6.178082 5.757660 1.097182 -0.207344 -2.015563 0.962179 -2.944870 -0.000003 0.000001 0.000002 0.967573 -5.283238 11.775844 1.496951 -4.314817 38.251768 0.060566 -0.917629 7.552240 0.000001 0.000002 0.000000 2.099622 -7.049102 19.513395 0.933474 -3.485016 29.981652 -1.371546 -0.754361 5.144543 0.000002 0.000000 0.000002 1.664157 -4.825655 28.531143 0.569903 -2.761581 23.316294 -1.530092 -1.260388 8.394079 -0.000000 0.000000 -0.000003 3.496189 -6.963086 36.844328 0.351658 -2.187313 18.264727 0.066167 -0.958926 7.894326 0.000000 -0.000001 0.000003 -7.666361 3.545822 5.119281 22.499275 8.422130 0.402339 -12.457419 3.608226 -4.992292 -0.471303 0.000005 -0.000001 -0.000000 -0.000000 0.000000 -9.001955 -13.441106 -7.665381 18.774675 -3.672801 -1.296409 -6.758641 -4.733675 8.613886 -0.000053 -0.000007 0.000003 -0.000000 -0.000000 -0.000000 
0.598920 93.805313 -0.695371 -1.727463 0.005869 -1.858787 1.103503 -0.084517 0.378618 1.286594 -2.333642 0.031636 1.286276 -2.330426 0.081938 -2.262187 0.820294 -1.291548 5.775611 -1.578783 3.918437 -0.000000 -0.000000 -0.000000 -0.332880 7.063696 -0.368453 2.385417 -24.489020 -70.497470 0.000000 -29.113111 0.000007 8.774796 13.797460 -13.405405 -12.758477 12.508601 7.104801 9.060657 13.324230 2.467373 -0.248512 2.470524 2.840150 0.000000 -0.000000 -0.000001 -0.087201 1.060174 -21.166664 1.263332 3.980102 -35.208099 0.309516 2.045043 -17.210875 -0.000001 -0.000002 0.000001 0.220081 2.114592 -27.562096 0.584018 2.779834 -23.725051 0.227542 1.758875 -14.741310 0.000000 0.000002 0.000003 -0.327129 1.602971 -33.835142 0.308520 2.041844 -17.183047 0.126182 1.314788 -10.963523 -0.000002 -0.000001 0.000001 3.650582 6.359908 -47.733583 0.466767 -1.571781 -21.567622 0.061725 0.921786 -7.661734 0.000000 -0.000001 0.000001 1.117866 3.037360 -3.409879 -2.673125 25.866948 75.016753 -0.000013 27.305230 -0.000002 -2.963422 -14.552305 0.571865 5.589042 -22.960021 -6.050413 6.005157 0.960483 -0.290349 -1.970917 0.860446 -2.960461 0.000002 0.000001 0.000001 0.986286 -5.340073 11.866794 1.497963 -4.316103 38.265192 0.059580 -0.910155 7.490411 0.000002 0.000000 0.000001 2.021099 -7.016655 18.786608 0.964885 -3.538798 30.494425 -1.272697 -0.755636 5.215593 0.000002 0.000001 0.000002 1.621639 -4.782473 27.962180 0.604383 -2.840141 24.021893 -1.425232 -1.256721 8.474851 0.000002 0.000001 0.000000 3.412808 -6.917918 36.187643 0.370976 -2.244934 18.764172 0.069027 -0.979360 8.063641 0.000001 -0.000002 0.000002 -7.644889 3.299600 5.133550 22.722747 8.531833 0.289292 -12.628561 3.653535 -4.918682 -0.485190 0.000000 -0.000001 -0.000000 -0.000002 0.000000 -8.953475 -13.463578 -7.692652 18.879410 -3.683503 -1.345617 -6.817571 -4.749512 8.751948 -0.000100 0.000014 0.000002 0.000000 -0.000002 -0.000000 
